<?xml version="1.0" standalone="no"?>
<!DOCTYPE svg PUBLIC "-//W3C//DTD SVG 20010904//EN"
 "http://www.w3.org/TR/2001/REC-SVG-20010904/DTD/svg10.dtd">
<svg version="1.0" xmlns="http://www.w3.org/2000/svg"
 width="700.000000pt" height="700.000000pt" viewBox="0 0 700.000000 700.000000"
 preserveAspectRatio="xMidYMid meet">
<metadata>
Created by potrace 1.11, written by Peter Selinger 2001-2013
</metadata>
<g transform="translate(0.000000,700.000000) scale(0.100000,-0.100000)"
fill="#000000" stroke="none">
<path d="M3486 5726 c-23 -16 -79 -61 -126 -101 -76 -64 -214 -178 -460 -380
-47 -39 -94 -78 -105 -87 -20 -17 -20 -27 -20 -688 l0 -670 -30 0 c-16 -1
-211 -1 -433 -1 l-402 0 -293 -241 c-160 -133 -327 -270 -370 -306 -51 -42
-77 -71 -78 -85 -2 -67 -4 -1804 -2 -1812 2 -7 318 -10 922 -10 l918 0 87 75
c48 41 109 93 136 115 27 22 71 59 99 83 l51 44 2 -209 3 -208 915 0 915 0 80
64 c44 36 82 68 85 71 3 3 105 90 228 194 122 103 222 195 223 204 3 51 3
1871 0 1894 l-3 27 -365 0 c-201 0 -367 2 -369 3 -1 2 29 29 67 61 l69 58 0
967 0 967 -852 0 -852 0 -40 -29z"/>
</g>
</svg>
